<?xml version="1.0" encoding="UTF-8" standalone="no"?>
<svg width="800px" height="600px" viewBox="0 0 800 600" version="1.1" xmlns="http://www.w3.org/2000/svg" xmlns:xlink="http://www.w3.org/1999/xlink">
    <!-- Generator: Sketch 3.6.1 (26313) - http://www.bohemiancoding.com/sketch -->
    <title>skeletor</title>
    <desc>Created with Sketch.</desc>
    <defs></defs>
    <g id="Page-1" stroke="none" stroke-width="1" fill="none" fill-rule="evenodd">
        <g id="skeletor">
            <g transform="translate(214.000000, 108.000000)">
                <path d="M185.999997,2 C246.000006,-8 269.487104,24.8070984 307.243557,73.5 C345.000009,122.192902 386.999984,281.667877 365.999997,322 C345.000009,362.332123 285.999991,372 185.999997,382 C85.9999989,392 24.9999998,361.248383 5.99999663,322 C-13.0000066,282.751617 24.9999992,122.698357 64.7564435,73.5 C104.512888,24.3016434 125.999999,12 185.999997,2 Z" id="hood" stroke="#000" stroke-width="20" stroke-linecap="round" stroke-linejoin="round" fill="#000"></path>
                <path d="M185,22.2312127 C185,22.2312127 205,22 245,51.734394 C285,81.4687881 318.794248,190.668635 304.999996,262.000003 C291.205743,333.331372 224.999996,341.999988 185,342 C145.000003,341.999988 81.2388906,345.972824 65,262.000003 C48.7611094,178.027183 85,81.4687881 125,51.734394 C165,22 185,22.2312127 185,22.2312127 Z" id="void" stroke="#fff" stroke-width="30" stroke-linecap="round" stroke-linejoin="round" fill="#fff"></path>
                <g id="skull" transform="translate(86.000000, 22.000000)">
                    <circle id="face" fill="#000" cx="100" cy="100" r="100"></circle>
                    <g id="upper-jaw" transform="translate(20.000000, 160.000000)" fill="#000">
                        <path d="M20,60 C31.045695,60 40,51.045695 40,40 C40,28.954305 11.045695,0.0484161377 7.10542736e-15,0 C19.9999991,20.0107899 3.55271368e-14,28.954305 3.55271368e-14,40 C3.55271368e-14,51.045695 8.954305,60 20,60 Z" id="Oval-2"></path>
                        <circle id="Oval-2" cx="50" cy="40" r="20"></circle>
                        <circle id="Oval-2" cx="80" cy="40" r="20"></circle>
                        <circle id="Oval-2" cx="110" cy="40" r="20"></circle>
                        <path d="M140,60 C151.045695,60 160,51.045695 160,40 C160,28.954305 144,20 160,0 C148.954305,0.0387954712 120,28.954305 120,40 C120,51.045695 128.954305,60 140,60 Z" id="Oval-2"></path>
                    </g>
                    <g id="eyes" transform="translate(40.000000, 100.000000)" fill="#fff">
                        <circle id="Oval-7" cx="20" cy="20" r="20"></circle>
                        <circle id="Oval-7" cx="100" cy="20" r="20"></circle>
                    </g>
                    <g id="nose" transform="translate(82.000000, 140.000000)" fill="#fff">
                        <path d="M10.5,40 C16.0228475,40 20.5,35.5228475 20.5,30 C20.5,24.4771525 18,0 18,0 C18,0 0.5,24.4771525 0.5,30 C0.5,35.5228475 4.9771525,40 10.5,40 Z" id="Oval-9"></path>
                        <path d="M26.5,40 C32.0228475,40 36.5,35.5228475 36.5,30 C36.5,24.4771525 17.9999999,0 17.9999999,0 C17.9999999,0 16.5,24.4771525 16.5,30 C16.5,35.5228475 20.9771525,40 26.5,40 Z" id="Oval-9"></path>
                    </g>
                    <g id="lower-jaw" transform="translate(15.000000, 230.000000)" fill="#000">
                        <path d="M5,29.3119888 C5,29.3119888 45,31.045695 45,20 C45,8.954305 36.045695,0 25,0 C13.954305,0 5,8.954305 5,20 L5,29.3119888 Z" id="Oval-11"></path>
                        <path d="M55,30 C55,30 75,31.045695 75,20 C75,8.954305 66.045695,0 55,0 C43.954305,0 35,8.954305 35,20 C35,31.045695 55,30 55,30 Z" id="Oval-11"></path>
                        <path d="M85,30 C85,30 105,31.045695 105,20 C105,8.954305 96.045695,0 85,0 C73.954305,0 65,8.954305 65,20 C65,31.045695 85,30 85,30 Z" id="Oval-11"></path>
                        <path d="M115,30 C115,30 135,31.045695 135,20 C135,8.954305 126.045695,0 115,0 C103.954305,0 95,8.954305 95,20 C95,31.045695 115,30 115,30 Z" id="Oval-12"></path>
                        <path d="M165,30 C165,30 165,31.045695 165,20 C165,8.954305 156.045695,0 145,0 C133.954305,0 125,8.954305 125,20 C125,31.045695 165,30 165,30 Z" id="Oval-13"></path>
                        <rect id="Rectangle-1" x="5" y="20" width="160" height="10"></rect>
                    </g>
                </g>
            </g>
        </g>
    </g>
</svg>