<?xml version="1.0" standalone="no"?>
<!DOCTYPE svg PUBLIC "-//W3C//DTD SVG 20010904//EN"
 "http://www.w3.org/TR/2001/REC-SVG-20010904/DTD/svg10.dtd">
<svg version="1.0" xmlns="http://www.w3.org/2000/svg"
 width="600.000000pt" height="600.000000pt" viewBox="0 0 600.000000 600.000000"
 preserveAspectRatio="xMidYMid meet">
<g transform="translate(0.000000,600.000000) scale(0.100000,-0.100000)"
fill="#000000" stroke="none">
<path d="M2880 4934 c-14 -2 -68 -11 -120 -20 -169 -29 -454 -154 -601 -264
-261 -195 -421 -508 -410 -799 1 -23 1 -23 49 -4 14 6 17 -54 3 -75 -7 -12
-14 -11 -41 3 -27 14 -34 15 -41 3 -27 -42 32 -556 69 -603 27 -34 30 -80 6
-71 -14 5 -16 -3 -12 -68 2 -41 0 -72 -4 -70 -5 3 -8 11 -8 17 -1 36 -100 91
-100 55 0 -4 -8 -8 -18 -8 -23 0 -111 -59 -133 -90 -10 -14 -28 -63 -40 -110
-12 -47 -33 -104 -46 -128 -27 -51 -24 -60 42 -121 76 -70 198 -108 280 -87
34 9 29 14 -21 21 -85 13 -86 29 -1 70 37 18 63 38 65 49 2 10 0 16 -5 13 -5
-3 -8 7 -7 21 2 44 -6 54 -42 50 -19 -1 -34 1 -34 5 0 25 1 27 13 21 8 -5 8
-2 -2 9 -7 9 -9 17 -4 17 5 0 9 10 10 21 1 12 13 45 26 73 14 28 27 58 29 65
12 42 38 -133 37 -249 -2 -271 52 -490 171 -690 83 -138 164 -211 336 -299 92
-48 160 -73 84 -31 -68 37 -7 19 113 -34 67 -29 147 -61 177 -71 30 -10 71
-26 91 -36 59 -30 194 -52 270 -45 273 25 730 223 881 382 109 115 263 424
302 605 5 25 10 27 76 31 301 22 436 382 223 592 -59 58 -120 88 -197 95 -34
3 -61 11 -60 16 30 278 30 660 0 768 -45 162 -145 256 -262 245 l-36 -3 -34
105 c-108 328 -302 518 -619 605 -58 16 -392 30 -455 19z m67 -218 c36 6 37 6
18 -10 -20 -17 -20 -17 2 -7 12 6 33 11 48 11 14 0 24 3 22 8 -6 8 90 4 113
-5 8 -3 40 -7 69 -9 34 -2 58 -9 63 -18 4 -7 25 -17 45 -21 52 -9 73 -31 73
-73 l0 -35 22 19 c12 10 18 13 14 7 -5 -9 1 -13 18 -13 14 0 28 -4 31 -10 3
-5 15 -10 26 -10 10 0 19 -4 19 -8 0 -4 15 -14 34 -20 60 -22 181 -178 225
-291 26 -64 28 -64 -72 17 -135 108 -295 191 -396 206 l-44 7 17 -25 c21 -33
22 -32 -24 -28 -35 4 -40 1 -40 -16 0 -28 -39 -38 -197 -53 -68 -7 -123 -15
-123 -18 0 -14 -372 -19 -376 -6 -2 6 13 23 34 39 26 20 31 26 15 21 -13 -3
-23 -2 -23 3 0 11 -60 9 -81 -3 -8 -5 -5 1 5 13 11 12 15 22 11 22 -5 0 4 14
20 30 16 17 25 30 21 30 -5 0 -3 7 4 15 15 18 34 20 24 3 -4 -7 2 -4 14 6 17
15 19 22 11 33 -10 12 -6 17 12 15 4 -1 5 11 4 26 -2 23 2 27 24 29 52 3 64 9
66 33 1 13 7 26 14 28 6 2 17 10 25 17 7 8 18 10 26 5 13 -8 41 10 34 22 -3 4
10 3 28 -3 42 -12 47 -11 28 2 -12 8 -9 9 12 5 23 -5 26 -4 21 11 -6 16 -4 16
9 5 11 -9 29 -11 55 -6z m73 9 c0 -3 -2 -5 -5 -5 -3 0 -5 2 -5 5 0 3 2 5 5 5
3 0 5 -2 5 -5z m-190 -10 c0 -3 -2 -5 -5 -5 -3 0 -5 2 -5 5 0 3 2 5 5 5 3 0 5
-2 5 -5z m-440 -12 c0 -10 -52 -96 -67 -111 -7 -7 -13 -17 -13 -20 0 -4 -12
-21 -27 -37 -132 -141 -210 -243 -253 -330 -23 -46 -32 -54 -110 -92 -105 -51
-100 -51 -100 -5 0 172 259 493 473 586 33 15 97 21 97 9z m380 -8 c0 -3 -2
-5 -5 -5 -3 0 -5 2 -5 5 0 3 2 5 5 5 3 0 5 -2 5 -5z m-95 -75 c-3 -5 -12 -10
-18 -10 -7 0 -6 4 3 10 19 12 23 12 15 0z m-85 -104 c0 -3 -5 -8 -12 -12 -7
-4 -8 -3 -4 4 7 12 16 16 16 8z m740 -111 c0 -3 -2 -5 -5 -5 -3 0 -5 2 -5 5 0
3 2 5 5 5 3 0 5 -2 5 -5z m-270 -90 c0 -3 -2 -5 -5 -5 -3 0 -5 2 -5 5 0 3 2 5
5 5 3 0 5 -2 5 -5z m-210 -10 c0 -3 -2 -5 -5 -5 -3 0 -5 2 -5 5 0 3 2 5 5 5 3
0 5 -2 5 -5z m-260 -30 c0 -3 -2 -5 -5 -5 -3 0 -5 2 -5 5 0 3 2 5 5 5 3 0 5
-2 5 -5z m1031 -175 c260 -53 403 -270 500 -759 58 -291 55 -342 -47 -744 -55
-217 -79 -244 -228 -253 -80 -6 -76 -8 -133 62 l-42 52 62 30 c127 63 218 190
252 351 17 83 25 96 60 105 23 6 25 11 25 61 0 54 0 55 -29 55 -16 0 -85 21
-153 46 -277 104 -466 100 -658 -12 l-75 -43 -60 14 c-78 19 -141 19 -224 0
l-67 -16 -70 41 c-195 114 -415 119 -669 15 -60 -25 -125 -45 -142 -45 l-33 0
0 -54 c0 -50 2 -54 30 -66 19 -8 32 -22 36 -39 54 -237 136 -361 285 -425 l66
-29 -25 -44 c-41 -74 -76 -77 -194 -17 -54 27 -54 27 -62 76 -3 21 -24 80 -45
130 -42 98 -120 361 -123 412 -1 17 8 76 20 131 25 116 69 385 83 499 22 185
51 267 103 287 17 7 63 27 101 45 162 75 266 95 630 124 149 12 315 26 370 30
138 11 348 2 456 -20z m508 -190 c6 -20 11 -50 10 -66 0 -27 -9 -7 -63 141 -6
14 -1 12 17 -9 13 -15 30 -45 36 -66z m249 -772 c28 -12 52 -24 52 -28 0 -4
11 -11 25 -14 14 -4 25 -11 25 -16 0 -6 6 -10 13 -10 6 0 26 -16 42 -36 17
-20 36 -43 44 -51 7 -8 14 -27 16 -42 1 -15 5 -33 9 -39 15 -25 9 -118 -11
-162 -24 -56 -86 -118 -144 -146 -166 -81 -184 -85 -193 -43 -17 88 7 573 31
612 3 4 12 5 22 2 9 -4 40 -16 69 -27z m-1836 -9 c130 -28 236 -123 252 -225
9 -60 -10 -83 -47 -54 -38 30 -55 91 -33 121 16 23 15 24 -42 51 -31 15 -70
37 -87 47 -48 31 -175 61 -175 41 0 -5 6 -10 13 -10 19 0 125 -70 164 -108 70
-68 80 -139 38 -281 -29 -99 -24 -115 32 -99 19 5 43 8 53 5 11 -3 25 9 44 39
34 53 41 56 21 8 -30 -73 -87 -131 -150 -153 l-30 -11 24 18 c32 25 14 32 -87
32 -92 0 -148 -14 -165 -41 -17 -27 -45 -24 -125 16 -242 121 -284 457 -71
566 86 43 260 61 371 38z m1144 -2 c67 -14 148 -57 164 -87 13 -24 8 -22 -100
28 -41 19 -106 43 -145 53 -69 17 -69 18 -25 18 25 0 72 -5 106 -12z m-178
-22 c225 -53 293 -170 215 -375 -42 -112 -46 -132 -31 -141 65 -41 158 132
158 294 0 20 8 45 20 58 60 71 70 -126 12 -243 -59 -119 -235 -244 -258 -183
-11 27 -82 38 -205 31 l-116 -7 -46 51 c-106 118 -129 330 -46 425 80 91 173
119 297 90z m539 -117 c-3 -7 -5 -2 -5 12 0 14 2 19 5 13 2 -7 2 -19 0 -25z
m-969 -14 c25 -17 29 -50 7 -74 -13 -14 -11 -19 17 -49 34 -36 50 -90 42 -137
-7 -39 13 -81 68 -140 l41 -44 -57 0 c-32 0 -88 -5 -126 -11 -70 -12 -360 5
-360 20 0 4 13 20 29 35 l29 28 102 -11 c124 -14 140 -14 140 -1 0 6 -5 10
-11 10 -17 0 -38 32 -39 58 0 28 -30 30 -55 2 -24 -27 -32 -25 -56 13 -26 41
-21 111 9 155 26 36 28 59 5 84 -13 15 -14 23 -5 43 17 36 46 31 83 -15 48
-59 89 -53 89 14 0 39 14 44 48 20z m-251 -56 c-3 -7 -5 -2 -5 12 0 14 2 19 5
13 2 -7 2 -19 0 -25z m-820 -90 c-2 -13 -4 -5 -4 17 -1 22 1 32 4 23 2 -10 2
-28 0 -40z m2160 -205 c-3 -10 -5 -2 -5 17 0 19 2 27 5 18 2 -10 2 -26 0 -35z
m-307 -8 c0 -3 -2 -5 -5 -5 -3 0 -5 2 -5 5 0 3 2 5 5 5 3 0 5 -2 5 -5z m303
-65 c-3 -12 -8 -19 -11 -16 -5 6 5 36 12 36 2 0 2 -9 -1 -20z m-1733 -55 c11
-13 8 -15 -14 -15 -25 0 -33 10 -19 23 10 11 19 8 33 -8z m-37 -51 c3 -4 -3
-25 -14 -48 -21 -44 -5 -32 32 24 11 17 21 21 34 17 32 -13 13 -76 -37 -120
-27 -24 -38 -40 -30 -44 19 -8 17 -202 -4 -231 -19 -27 -39 -28 -57 -2 -17 24
0 198 22 224 12 14 10 16 -12 16 -69 0 -73 27 -15 101 53 68 66 78 81 63z
m677 -100 c68 -18 168 -18 285 0 139 21 166 -2 125 -110 -12 -32 -28 -87 -36
-123 -39 -165 -132 -206 -293 -129 -85 41 -264 39 -341 -4 -98 -56 -190 -44
-274 34 -52 48 -69 96 -28 81 13 -6 14 4 8 78 -11 122 -10 128 15 156 23 24
28 25 94 19 212 -19 248 -19 305 2 30 11 62 18 70 15 8 -2 40 -11 70 -19z
m1010 -46 c-60 -119 -177 -292 -215 -318 -81 -55 -209 -107 -221 -89 -4 6 -11
6 -20 -2 -8 -7 -14 -7 -14 -1 0 12 37 49 119 121 34 29 80 81 101 115 27 42
58 75 97 102 31 21 82 58 112 81 64 51 70 49 41 -9z m-430 -18 c0 -5 -5 -10
-10 -10 -7 0 -7 -8 1 -22 25 -46 31 -186 10 -233 -21 -47 -76 -95 -110 -95
-25 0 -23 16 6 74 8 16 18 79 23 145 5 64 11 124 15 134 8 18 65 25 65 7z
m-1150 -165 c0 -3 -2 -5 -5 -5 -3 0 -5 2 -5 5 0 3 2 5 5 5 3 0 5 -2 5 -5z
m956 -167 c-21 -12 -86 -29 -86 -22 0 7 65 32 85 33 19 0 20 0 1 -11z m114
-73 c0 -3 -2 -5 -5 -5 -3 0 -5 2 -5 5 0 3 2 5 5 5 3 0 5 -2 5 -5z m-743 -72
c-4 -3 -10 -3 -14 0 -3 4 0 7 7 7 7 0 10 -3 7 -7z m73 2 c0 -3 -2 -5 -5 -5 -3
0 -5 2 -5 5 0 3 2 5 5 5 3 0 5 -2 5 -5z m50 -10 c0 -3 -2 -5 -5 -5 -3 0 -5 2
-5 5 0 3 2 5 5 5 3 0 5 -2 5 -5z m120 0 c0 -3 -2 -5 -5 -5 -3 0 -5 2 -5 5 0 3
2 5 5 5 3 0 5 -2 5 -5z m60 0 c0 -3 -2 -5 -5 -5 -3 0 -5 2 -5 5 0 3 2 5 5 5 3
0 5 -2 5 -5z"/>
<path d="M2913 4693 c4 -3 10 -3 14 0 3 4 0 7 -7 7 -7 0 -10 -3 -7 -7z"/>
<path d="M2818 4673 c7 -3 16 -2 19 1 4 3 -2 6 -13 5 -11 0 -14 -3 -6 -6z"/>
<path d="M2960 4665 c0 -3 2 -5 5 -5 3 0 5 2 5 5 0 3 -2 5 -5 5 -3 0 -5 -2 -5
-5z"/>
<path d="M2840 4655 c0 -3 2 -5 5 -5 3 0 5 2 5 5 0 3 -2 5 -5 5 -3 0 -5 -2 -5
-5z"/>
<path d="M2720 4640 c-9 -6 -10 -10 -3 -10 6 0 15 5 18 10 8 12 4 12 -15 0z"/>
<path d="M2740 4625 c0 -3 2 -5 5 -5 3 0 5 2 5 5 0 3 -2 5 -5 5 -3 0 -5 -2 -5
-5z"/>
<path d="M2713 4613 c4 -3 10 -3 14 0 3 4 0 7 -7 7 -7 0 -10 -3 -7 -7z"/>
<path d="M2620 4580 c-12 -7 -10 -9 7 -7 12 0 19 5 17 9 -6 10 -6 10 -24 -2z"/>
<path d="M2620 4545 c0 -3 2 -5 5 -5 3 0 5 2 5 5 0 3 -2 5 -5 5 -3 0 -5 -2 -5
-5z"/>
<path d="M2620 4505 c0 -3 2 -5 5 -5 3 0 5 2 5 5 0 3 -2 5 -5 5 -3 0 -5 -2 -5
-5z"/>
<path d="M2590 4485 c0 -3 2 -5 5 -5 3 0 5 2 5 5 0 3 -2 5 -5 5 -3 0 -5 -2 -5
-5z"/>
<path d="M2544 4448 c-4 -7 -3 -8 4 -4 12 7 16 16 8 16 -3 0 -8 -5 -12 -12z"/>
<path d="M2504 4418 c-4 -7 -3 -8 4 -4 12 7 16 16 8 16 -3 0 -8 -5 -12 -12z"/>
<path d="M3260 4425 c0 -3 2 -5 5 -5 3 0 5 2 5 5 0 3 -2 5 -5 5 -3 0 -5 -2 -5
-5z"/>
<path d="M2630 4405 c0 -3 2 -5 5 -5 3 0 5 2 5 5 0 3 -2 5 -5 5 -3 0 -5 -2 -5
-5z"/>
<path d="M2790 4325 c0 -3 2 -5 5 -5 3 0 5 2 5 5 0 3 -2 5 -5 5 -3 0 -5 -2 -5
-5z"/>
<path d="M2760 4315 c0 -3 2 -5 5 -5 3 0 5 2 5 5 0 3 -2 5 -5 5 -3 0 -5 -2 -5
-5z"/>
<path d="M3640 3825 c0 -3 2 -5 5 -5 3 0 5 2 5 5 0 3 -2 5 -5 5 -3 0 -5 -2 -5
-5z"/>
<path d="M3675 3790 c9 -15 45 -32 45 -22 0 5 -12 14 -26 20 -14 7 -23 8 -19
2z"/>
<path d="M3690 3755 c0 -3 2 -5 5 -5 3 0 5 2 5 5 0 3 -2 5 -5 5 -3 0 -5 -2 -5
-5z"/>
<path d="M3719 3750 c-16 -9 -16 -29 -4 -119 4 -28 10 -49 14 -47 4 3 8 -5 8
-17 2 -33 8 -56 18 -64 4 -4 5 -2 0 6 -5 9 -4 12 3 7 6 -3 13 -20 17 -36 4
-18 11 -27 17 -24 7 4 8 2 4 -4 -8 -13 53 -142 66 -142 4 0 8 -5 8 -11 0 -18
34 -54 54 -57 18 -3 18 1 12 63 -19 185 -90 381 -147 402 -16 6 -29 18 -29 26
0 19 -22 27 -41 17z m51 -185 c0 -3 -2 -5 -5 -5 -3 0 -5 2 -5 5 0 3 2 5 5 5 3
0 5 -2 5 -5z m-10 -20 c0 -3 -2 -5 -5 -5 -3 0 -5 2 -5 5 0 3 2 5 5 5 3 0 5 -2
5 -5z"/>
<path d="M3660 3735 c0 -3 2 -5 5 -5 3 0 5 2 5 5 0 3 -2 5 -5 5 -3 0 -5 -2 -5
-5z"/>
<path d="M2220 3725 c0 -3 2 -5 5 -5 3 0 5 2 5 5 0 3 -2 5 -5 5 -3 0 -5 -2 -5
-5z"/>
<path d="M2241 3717 c0 -10 -5 -15 -11 -12 -5 3 -12 -7 -16 -22 -3 -15 -12
-32 -18 -38 -9 -8 -9 -15 0 -33 8 -15 14 -20 19 -12 5 8 11 7 23 -2 15 -11 15
-11 4 3 -7 9 -10 23 -6 32 3 8 1 18 -5 22 -6 3 -11 12 -11 18 0 7 4 6 10 -3
12 -19 24 8 17 42 -3 16 -5 17 -6 5z m-21 -71 c0 -3 -5 -8 -12 -12 -7 -4 -8
-3 -4 4 7 12 16 16 16 8z"/>
<path d="M3780 3725 c0 -3 2 -5 5 -5 3 0 5 2 5 5 0 3 -2 5 -5 5 -3 0 -5 -2 -5
-5z"/>
<path d="M3660 3715 c0 -3 2 -5 5 -5 3 0 5 2 5 5 0 3 -2 5 -5 5 -3 0 -5 -2 -5
-5z"/>
<path d="M3680 3701 c0 -6 4 -12 8 -15 5 -3 9 1 9 9 0 8 -4 15 -9 15 -4 0 -8
-4 -8 -9z"/>
<path d="M2280 3685 c0 -3 2 -5 5 -5 3 0 5 2 5 5 0 3 -2 5 -5 5 -3 0 -5 -2 -5
-5z"/>
<path d="M3650 3665 c0 -3 2 -5 5 -5 3 0 5 2 5 5 0 3 -2 5 -5 5 -3 0 -5 -2 -5
-5z"/>
<path d="M2180 3605 c0 -3 2 -5 5 -5 3 0 5 2 5 5 0 3 -2 5 -5 5 -3 0 -5 -2 -5
-5z"/>
<path d="M2195 3570 c3 -5 8 -10 11 -10 3 0 2 5 -1 10 -3 6 -8 10 -11 10 -3 0
-2 -4 1 -10z"/>
<path d="M2174 3548 c-4 -7 -3 -8 4 -4 12 7 16 16 8 16 -3 0 -8 -5 -12 -12z"/>
<path d="M2180 3525 c0 -3 2 -5 5 -5 3 0 5 2 5 5 0 3 -2 5 -5 5 -3 0 -5 -2 -5
-5z"/>
<path d="M3740 3475 c0 -3 2 -5 5 -5 3 0 5 2 5 5 0 3 -2 5 -5 5 -3 0 -5 -2 -5
-5z"/>
<path d="M3760 3465 c0 -3 2 -5 5 -5 3 0 5 2 5 5 0 3 -2 5 -5 5 -3 0 -5 -2 -5
-5z"/>
<path d="M3445 3326 c-81 -26 -175 -92 -175 -123 0 -8 3 -13 8 -11 4 2 46 23
94 47 113 57 177 60 287 11 85 -37 98 -33 51 15 -62 64 -174 90 -265 61z"/>
<path d="M2295 3316 c-71 -18 -177 -77 -163 -91 2 -3 38 7 79 21 134 47 256
35 362 -34 51 -34 56 -22 13 26 -65 72 -188 105 -291 78z"/>
<path d="M4396 2931 c-3 -5 -3 -29 0 -53 4 -23 7 -57 8 -75 0 -17 4 -29 8 -27
3 2 8 -1 10 -8 3 -9 12 -8 32 6 26 16 28 22 23 63 -7 65 -61 128 -81 94z"/>
<path d="M4460 2755 c0 -3 2 -5 5 -5 3 0 5 2 5 5 0 3 -2 5 -5 5 -3 0 -5 -2 -5
-5z"/>
<path d="M2377 2959 c-69 -40 -66 -222 3 -244 62 -20 104 33 104 130 0 103
-44 151 -107 114z"/>
<path d="M3456 2940 c-86 -102 5 -300 95 -204 34 36 40 154 10 202 -28 43 -69
44 -105 2z"/>
<path d="M3040 2596 l-24 -14 47 -23 c54 -27 61 -24 46 19 -12 35 -30 39 -69
18z"/>
<path d="M2800 2201 c0 -20 81 -70 133 -81 67 -15 120 -2 173 44 50 44 39 56
-18 19 -73 -48 -152 -41 -280 25 -5 2 -8 -1 -8 -7z"/>
<path d="M2049 4686 c-141 -37 -339 -269 -339 -398 0 -26 43 -78 66 -78 7 0
29 30 50 68 64 115 115 184 210 282 50 52 91 103 91 113 0 9 -3 15 -5 12 -3
-3 -10 -1 -16 4 -6 5 -30 4 -57 -3z m51 -1 c0 -3 -2 -5 -5 -5 -3 0 -5 2 -5 5
0 3 2 5 5 5 3 0 5 -2 5 -5z"/>
<path d="M1427 3240 c-189 -120 -253 -368 -109 -427 l32 -13 0 32 c1 139 88
268 222 331 65 30 67 32 50 50 -54 60 -128 70 -195 27z"/>
<path d="M2450 1635 c0 -3 2 -5 5 -5 3 0 5 2 5 5 0 3 -2 5 -5 5 -3 0 -5 -2 -5
-5z"/>
<path d="M2744 1463 c-19 -49 -27 -133 -12 -133 4 0 8 -9 8 -20 0 -20 1 -20
37 3 l37 24 1 81 c0 56 -4 82 -12 82 -6 0 -18 2 -26 5 -10 4 -20 -9 -33 -42z
m56 -128 c0 -3 -2 -5 -5 -5 -3 0 -5 2 -5 5 0 3 2 5 5 5 3 0 5 -2 5 -5z"/>
<path d="M3375 1378 c3 -49 1 -89 -4 -93 -14 -8 -149 -23 -284 -31 -102 -6
-117 -9 -114 -23 2 -9 9 -15 16 -13 29 6 1 -23 -45 -49 -75 -40 -198 -50 -474
-38 -92 4 -100 8 -100 55 0 70 65 126 176 151 61 14 65 16 62 41 -3 23 -9 28
-48 34 -101 18 -198 -15 -282 -96 -72 -68 -122 -104 -176 -125 -377 -149 -881
-563 -1029 -848 -15 -29 -34 -53 -40 -53 -7 0 -13 -9 -13 -19 0 -11 -3 -21 -7
-23 -11 -4 -43 -67 -43 -83 0 -8 -7 -18 -15 -23 -9 -4 -18 -22 -20 -38 -2 -16
-4 -29 -5 -29 -1 0 -4 -17 -5 -37 l-4 -38 43 0 43 0 75 113 c284 426 681 764
1091 929 64 25 211 78 212 75 2 -15 29 -47 54 -64 58 -39 109 -51 496 -109
142 -21 205 -36 199 -45 -3 -5 1 -6 9 -3 8 3 34 -2 58 -10 24 -9 57 -16 72
-16 16 0 26 -4 23 -9 -4 -5 3 -7 14 -4 16 4 19 2 14 -13 -6 -17 -5 -17 9 1 9
11 17 15 17 8 0 -7 7 -10 15 -7 9 4 15 1 15 -7 0 -10 3 -10 12 -1 7 7 16 8 22
3 15 -12 58 -17 72 -8 7 4 17 0 24 -8 14 -17 36 -20 44 -6 4 5 -4 7 -16 4 -13
-3 -20 -2 -16 2 5 5 26 8 48 7 25 -1 40 3 40 10 0 9 3 9 12 0 16 -16 31 -15
22 1 -4 6 2 3 13 -8 15 -15 18 -25 11 -37 -13 -27 -3 -21 17 8 9 15 12 23 6
20 -7 -5 -9 -1 -5 9 5 13 10 11 29 -10 13 -13 25 -20 27 -15 2 6 15 4 30 -4
16 -9 30 -11 33 -5 4 5 -1 9 -9 9 -9 0 -16 4 -16 9 0 17 38 -1 43 -20 6 -22
28 -24 60 -8 12 7 19 8 15 4 -15 -16 12 -47 29 -33 13 10 18 9 32 -8 9 -11 24
-18 33 -16 10 2 27 -6 40 -18 12 -11 27 -19 33 -17 14 4 62 -47 57 -62 -5 -16
27 -26 41 -12 22 22 30 11 9 -12 -23 -24 -19 -45 5 -26 8 7 13 8 13 1 0 -5 6
-10 13 -9 30 1 48 -4 43 -11 -5 -9 29 -42 44 -42 5 0 14 -8 19 -17 6 -10 11
-14 11 -9 0 5 8 -1 19 -12 10 -12 21 -19 25 -15 3 3 6 -3 6 -14 0 -16 5 -20
19 -16 10 2 25 -2 33 -11 9 -8 18 -12 22 -9 3 4 6 -1 6 -11 0 -10 5 -14 12
-10 7 5 8 3 3 -6 -5 -8 1 -20 16 -32 13 -11 18 -16 10 -12 -9 5 -12 3 -7 -5 4
-6 12 -9 17 -5 12 7 109 -95 109 -113 0 -7 8 -13 18 -13 12 0 14 -3 4 -8 -9
-6 -6 -12 12 -22 14 -7 23 -16 21 -20 -3 -5 2 -11 11 -14 8 -3 12 -10 9 -16
-3 -5 0 -10 8 -10 7 0 19 -11 25 -25 6 -14 16 -25 22 -25 6 0 9 -4 6 -9 -3 -5
5 -16 19 -25 14 -9 25 -23 25 -31 0 -12 14 -15 60 -15 71 0 72 -7 -13 120
-305 456 -759 820 -1202 964 -27 9 -55 18 -61 21 -8 2 -9 17 -5 42 15 82 -37
156 -126 178 l-48 12 -12 64 -13 64 5 -87z m112 -174 c13 -4 21 -10 18 -14 -2
-4 7 -13 20 -20 28 -15 32 -46 14 -97 -9 -28 -92 -86 -116 -83 -5 1 -39 -2
-78 -5 -125 -11 -145 -11 -157 -3 -8 5 -1 8 20 8 17 0 32 5 32 11 0 6 -7 8
-16 5 -8 -3 -12 -2 -9 4 6 10 -3 11 -117 11 l-67 1 -7 34 c-3 19 -10 34 -16
34 -5 0 -6 5 -2 12 4 6 3 8 -3 5 -6 -4 -16 0 -24 9 -10 13 -9 16 9 21 12 3 22
9 22 13 0 10 48 19 130 26 160 12 262 24 269 30 6 6 53 5 78 -2z m-487 -44 c0
-5 -2 -10 -4 -10 -3 0 -8 5 -11 10 -3 6 -1 10 4 10 6 0 11 -4 11 -10z m-40 -6
c0 -8 -19 -13 -24 -6 -3 5 1 9 9 9 8 0 15 -2 15 -3z m50 -89 c0 -3 -2 -5 -5
-5 -3 0 -5 2 -5 5 0 3 2 5 5 5 3 0 5 -2 5 -5z m5 -35 c3 -6 -1 -7 -9 -4 -18 7
-21 14 -7 14 6 0 13 -4 16 -10z m435 -175 c0 -3 -2 -5 -5 -5 -3 0 -5 2 -5 5 0
3 2 5 5 5 3 0 5 -2 5 -5z m319 -29 c0 -7 -2 -6 -6 2 -2 6 -8 10 -12 8 -4 -3
-8 1 -8 9 0 11 4 12 14 4 7 -6 13 -17 12 -23z m-242 17 c-4 -3 -10 -3 -14 0
-3 4 0 7 7 7 7 0 10 -3 7 -7z m393 -78 c0 -3 -2 -5 -5 -5 -3 0 -5 2 -5 5 0 3
2 5 5 5 3 0 5 -2 5 -5z m250 -110 c0 -3 -2 -5 -5 -5 -3 0 -5 2 -5 5 0 3 2 5 5
5 3 0 5 -2 5 -5z m80 -60 c0 -3 -2 -5 -5 -5 -3 0 -5 2 -5 5 0 3 2 5 5 5 3 0 5
-2 5 -5z m50 -30 c0 -3 -2 -5 -5 -5 -3 0 -5 2 -5 5 0 3 2 5 5 5 3 0 5 -2 5 -5z
m10 -20 c0 -3 -2 -5 -5 -5 -3 0 -5 2 -5 5 0 3 2 5 5 5 3 0 5 -2 5 -5z m170
-160 c0 -3 -2 -5 -5 -5 -3 0 -5 2 -5 5 0 3 2 5 5 5 3 0 5 -2 5 -5z m150 -150
c0 -3 -2 -5 -5 -5 -3 0 -5 2 -5 5 0 3 2 5 5 5 3 0 5 -2 5 -5z m40 -40 c0 -3
-2 -5 -5 -5 -3 0 -5 2 -5 5 0 3 2 5 5 5 3 0 5 -2 5 -5z m70 -90 c0 -3 -2 -5
-5 -5 -3 0 -5 2 -5 5 0 3 2 5 5 5 3 0 5 -2 5 -5z"/>
<path d="M2980 1125 c0 -3 2 -5 5 -5 3 0 5 2 5 5 0 3 -2 5 -5 5 -3 0 -5 -2 -5
-5z"/>
<path d="M3250 1005 c0 -3 2 -5 5 -5 3 0 5 2 5 5 0 3 -2 5 -5 5 -3 0 -5 -2 -5
-5z"/>
<path d="M2577 1313 c-22 -6 -17 -27 6 -31 12 -2 17 3 17 17 0 12 -1 20 -2 20
-2 -1 -11 -3 -21 -6z"/>
<path d="M2770 1300 c-9 -6 -10 -10 -3 -10 6 0 15 5 18 10 8 12 4 12 -15 0z"/>
<path d="M3490 825 c0 -3 2 -5 5 -5 3 0 5 2 5 5 0 3 -2 5 -5 5 -3 0 -5 -2 -5
-5z"/>
<path d="M3580 809 c0 -5 5 -7 10 -4 6 3 10 8 10 11 0 2 -4 4 -10 4 -5 0 -10
-5 -10 -11z"/>
<path d="M3623 803 c4 -3 10 -3 14 0 3 4 0 7 -7 7 -7 0 -10 -3 -7 -7z"/>
<path d="M3510 795 c0 -3 2 -5 5 -5 3 0 5 2 5 5 0 3 -2 5 -5 5 -3 0 -5 -2 -5
-5z"/>
<path d="M3750 795 c0 -3 2 -5 5 -5 3 0 5 2 5 5 0 3 -2 5 -5 5 -3 0 -5 -2 -5
-5z"/>
<path d="M3600 780 c0 -4 7 -7 15 -6 23 3 26 12 5 13 -11 1 -20 -2 -20 -7z"/>
<path d="M3880 775 c0 -3 2 -5 5 -5 3 0 5 2 5 5 0 3 -2 5 -5 5 -3 0 -5 -2 -5
-5z"/>
<path d="M3640 765 c0 -3 2 -5 5 -5 3 0 5 2 5 5 0 3 -2 5 -5 5 -3 0 -5 -2 -5
-5z"/>
<path d="M3690 759 c0 -5 5 -7 10 -4 6 3 10 8 10 11 0 2 -4 4 -10 4 -5 0 -10
-5 -10 -11z"/>
<path d="M3740 760 c-8 -5 -12 -12 -9 -15 4 -3 12 1 19 10 14 17 11 19 -10 5z"/>
<path d="M3940 755 c0 -3 2 -5 5 -5 3 0 5 2 5 5 0 3 -2 5 -5 5 -3 0 -5 -2 -5
-5z"/>
<path d="M3825 740 c3 -5 8 -10 11 -10 3 0 2 5 -1 10 -3 6 -8 10 -11 10 -3 0
-2 -4 1 -10z"/>
<path d="M3790 735 c0 -3 2 -5 5 -5 3 0 5 2 5 5 0 3 -2 5 -5 5 -3 0 -5 -2 -5
-5z"/>
<path d="M3744 718 c-4 -7 -3 -8 4 -4 12 7 16 16 8 16 -3 0 -8 -5 -12 -12z"/>
<path d="M3810 715 c0 -3 2 -5 5 -5 3 0 5 2 5 5 0 3 -2 5 -5 5 -3 0 -5 -2 -5
-5z"/>
<path d="M3860 705 c0 -3 2 -5 5 -5 3 0 5 2 5 5 0 3 -2 5 -5 5 -3 0 -5 -2 -5
-5z"/>
<path d="M3970 705 c0 -3 2 -5 5 -5 3 0 5 2 5 5 0 3 -2 5 -5 5 -3 0 -5 -2 -5
-5z"/>
<path d="M3800 685 c0 -3 2 -5 5 -5 3 0 5 2 5 5 0 3 -2 5 -5 5 -3 0 -5 -2 -5
-5z"/>
<path d="M3830 685 c0 -3 2 -5 5 -5 3 0 5 2 5 5 0 3 -2 5 -5 5 -3 0 -5 -2 -5
-5z"/>
<path d="M3860 685 c0 -3 2 -5 5 -5 3 0 5 2 5 5 0 3 -2 5 -5 5 -3 0 -5 -2 -5
-5z"/>
<path d="M4060 685 c0 -3 2 -5 5 -5 3 0 5 2 5 5 0 3 -2 5 -5 5 -3 0 -5 -2 -5
-5z"/>
<path d="M3963 663 c4 -3 10 -3 14 0 3 4 0 7 -7 7 -7 0 -10 -3 -7 -7z"/>
<path d="M4073 663 c4 -3 10 -3 14 0 3 4 0 7 -7 7 -7 0 -10 -3 -7 -7z"/>
<path d="M3920 655 c0 -3 2 -5 5 -5 3 0 5 2 5 5 0 3 -2 5 -5 5 -3 0 -5 -2 -5
-5z"/>
<path d="M4045 650 c3 -5 8 -10 11 -10 3 0 2 5 -1 10 -3 6 -8 10 -11 10 -3 0
-2 -4 1 -10z"/>
<path d="M3950 645 c0 -3 2 -5 5 -5 3 0 5 2 5 5 0 3 -2 5 -5 5 -3 0 -5 -2 -5
-5z"/>
<path d="M4010 645 c0 -3 2 -5 5 -5 3 0 5 2 5 5 0 3 -2 5 -5 5 -3 0 -5 -2 -5
-5z"/>
<path d="M4095 640 c-3 -5 -1 -10 4 -10 6 0 11 5 11 10 0 6 -2 10 -4 10 -3 0
-8 -4 -11 -10z"/>
<path d="M3980 635 c0 -3 2 -5 5 -5 3 0 5 2 5 5 0 3 -2 5 -5 5 -3 0 -5 -2 -5
-5z"/>
<path d="M4070 635 c0 -3 2 -5 5 -5 3 0 5 2 5 5 0 3 -2 5 -5 5 -3 0 -5 -2 -5
-5z"/>
<path d="M4020 605 c0 -3 2 -5 5 -5 3 0 5 2 5 5 0 3 -2 5 -5 5 -3 0 -5 -2 -5
-5z"/>
<path d="M4110 575 c0 -3 2 -5 5 -5 3 0 5 2 5 5 0 3 -2 5 -5 5 -3 0 -5 -2 -5
-5z"/>
<path d="M4160 565 c0 -3 2 -5 5 -5 3 0 5 2 5 5 0 3 -2 5 -5 5 -3 0 -5 -2 -5
-5z"/>
<path d="M4214 558 c-4 -7 -3 -8 4 -4 7 4 12 9 12 12 0 8 -9 4 -16 -8z"/>
<path d="M4180 525 c0 -3 2 -5 5 -5 3 0 5 2 5 5 0 3 -2 5 -5 5 -3 0 -5 -2 -5
-5z"/>
<path d="M4350 425 c0 -3 2 -5 5 -5 3 0 5 2 5 5 0 3 -2 5 -5 5 -3 0 -5 -2 -5
-5z"/>
<path d="M4520 325 c0 -3 2 -5 5 -5 3 0 5 2 5 5 0 3 -2 5 -5 5 -3 0 -5 -2 -5
-5z"/>
<path d="M2540 175 c0 -3 2 -5 5 -5 3 0 5 2 5 5 0 3 -2 5 -5 5 -3 0 -5 -2 -5
-5z"/>
<path d="M4640 165 c0 -3 2 -5 5 -5 3 0 5 2 5 5 0 3 -2 5 -5 5 -3 0 -5 -2 -5
-5z"/>
<path d="M2870 75 c0 -3 2 -5 5 -5 3 0 5 2 5 5 0 3 -2 5 -5 5 -3 0 -5 -2 -5
-5z"/>
<path d="M2130 25 c0 -3 2 -5 5 -5 3 0 5 2 5 5 0 3 -2 5 -5 5 -3 0 -5 -2 -5
-5z"/>
<path d="M2218 23 c7 -3 16 -2 19 1 4 3 -2 6 -13 5 -11 0 -14 -3 -6 -6z"/>
<path d="M1733 13 c4 -3 10 -3 14 0 3 4 0 7 -7 7 -7 0 -10 -3 -7 -7z"/>
<path d="M1950 15 c0 -3 2 -5 5 -5 3 0 5 2 5 5 0 3 -2 5 -5 5 -3 0 -5 -2 -5
-5z"/>
<path d="M1670 5 c0 -3 2 -5 5 -5 3 0 5 2 5 5 0 3 -2 5 -5 5 -3 0 -5 -2 -5 -5z"/>
<path d="M1853 3 c4 -3 10 -3 14 0 3 4 0 7 -7 7 -7 0 -10 -3 -7 -7z"/>
<path d="M2170 5 c0 -3 2 -5 5 -5 3 0 5 2 5 5 0 3 -2 5 -5 5 -3 0 -5 -2 -5 -5z"/>
<path d="M2310 5 c0 -3 2 -5 5 -5 3 0 5 2 5 5 0 3 -2 5 -5 5 -3 0 -5 -2 -5 -5z"/>
<path d="M2860 5 c0 -3 2 -5 5 -5 3 0 5 2 5 5 0 3 -2 5 -5 5 -3 0 -5 -2 -5 -5z"/>
</g>
</svg>
